<svg id="Layer_1" data-name="Layer 1" xmlns="http://www.w3.org/2000/svg" viewBox="0 0 1552.97 421.4"><defs><style>.cls-1{fill:#fe0000;}.cls-2{font-size:326px;letter-spacing:-0.07em;}.cls-2,.cls-3{font-family:Play-Regular, Play;}.cls-3{font-size:105px;letter-spacing:1.17em;}</style></defs><path class="cls-1" d="M377.75,121.77c0-2.37-.6-3.7-2.75-4.94Q286,65.66,197,14.29a4.37,4.37,0,0,0-5.11,0Q103,65.65,14,116.82c-2.16,1.24-2.77,2.57-2.76,4.93q.12,51.26.05,102.49T11.2,326.73a4.58,4.58,0,0,0,2.64,4.68q89,51.19,177.94,102.58a4.63,4.63,0,0,0,5.38,0q88.92-51.37,178-102.58a4.6,4.6,0,0,0,2.64-4.67Q377.66,224.26,377.75,121.77ZM65.69,224.1c-.13-1.58.87-2.35,1.47-3.26q35.82-54.5,71.66-109a5.19,5.19,0,0,1,5.06-2.69c16.1.11,32.21.06,48.31.06h3.71c-8.25,12.52-16.1,24.43-24,36.36q-25,38-50,76.09a4.69,4.69,0,0,1-4.53,2.48c-16.31-.09-32.63-.05-48.95-.05ZM148,336.73c-.9,1.38-1.71,2.35-3.66,2.34-17.15-.09-34.31-.05-51.47-.06-.3,0-.61-.09-1.45-.21.79-1.24,1.38-2.2,2-3.14Q167,223.84,240.59,112a5.5,5.5,0,0,1,5.31-2.8c17,.11,34.1.06,51.15.06.41,1.17-.5,1.8-1,2.53Q222.06,224.25,148,336.73ZM322.09,227Q286,281.85,249.92,336.7c-.89,1.36-1.68,2.38-3.64,2.37-17.05-.09-34.1-.05-51.14-.06-.5,0-1,.14-1.46-.4.07-1.09.9-1.83,1.45-2.68Q231,281.45,266.77,227c1.36-2.06,2.7-2.95,5.26-2.93,16.21.13,32.41.06,48.62.08.88,0,2.12-.51,2.59.43S322.59,226.21,322.09,227Z" transform="translate(-11.2 -13.46)"/><text class="cls-2" transform="translate(424.89 280.75)">VORON</text><text class="cls-3" transform="translate(429.82 387.88)">DESIGN</text></svg>